<svg xmlns="http://www.w3.org/2000/svg" viewBox="0 0 64 64">
	<defs>
		<clipPath id="a">
			<rect y="7.5" width="64" height="32" fill="none"/>
		</clipPath>
	</defs>
	<g>
		<line x1="17" y1="44" x2="47" y2="44" fill="none" stroke="#d1d5db" stroke-linecap="round" stroke-miterlimit="10" stroke-width="3"/>
		<animateTransform attributeName="transform" type="translate" values="-4 0; 4 0; -4 0" dur="5s" begin="0s" repeatCount="indefinite"/>
	</g>
	<g>
		<line x1="17" y1="51" x2="47" y2="51" fill="none" stroke="#d1d5db" stroke-linecap="round" stroke-miterlimit="10" stroke-width="3"/>
		<animateTransform attributeName="transform" type="translate" values="-4 0; 4 0; -4 0" dur="5s" begin="-4s" repeatCount="indefinite"/>
	</g>
	<g clip-path="url(#a)">
		<g>
			<path d="M46.66,36.2A16.66,16.66,0,0,1,29.88,19.65a16.29,16.29,0,0,1,.55-4.15A16.56,16.56,0,1,0,48.5,36.1C47.89,36.16,47.28,36.2,46.66,36.2Z" fill="none" stroke="#72b9d5" stroke-linecap="round" stroke-linejoin="round" stroke-width="3"/>
			<animateTransform attributeName="transform" type="rotate" values="-5 32 32;15 32 32;-5 32 32" dur="10s" repeatCount="indefinite"/>
		</g>
	</g>
	<g transform="translate(-5 18) scale(0.13)">
		<path fill="#86c3db" d="m249.6 180.7-5.8-3.4a14.3 14.3 0 000-6.6l5.8-3.4a4.1 4.1 0 001.4-5.5 4 4 0 00-5.5-1.5l-5.8 3.3a14.2 14.2 0 00-2.6-2 14.6 14.6 0 00-3-1.3v-6.7a4 4 0 10-8.1 0v6.7a14.2 14.2 0 00-5.7 3.3l-5.8-3.3a4 4 0 00-5.5 1.5 4.1 4.1 0 001.5 5.5l5.8 3.4a14.3 14.3 0 000 6.6l-5.8 3.4a4.1 4.1 0 00-1.5 5.5 4 4 0 005.5 1.5l5.8-3.3a14.2 14.2 0 002.6 2 13.8 13.8 0 003 1.3v6.7a4 4 0 108.1 0v-6.7a14.1 14.1 0 005.7-3.3l5.8 3.3a4 4 0 005.5-1.5 4.1 4.1 0 00-1.4-5.5Zm-22.6-1.4a6.2 6.2 0 01-2.2-8.4 6 6 0 015.2-3 6 6 0 013 .8 6.2 6.2 0 012.3 8.4 6 6 0 01-8.3 2.2Z" opacity="0">
			<animateTransform id="b" additive="sum" attributeName="transform" begin=".5s; b.end+1.33s" dur="1.67s" type="translate" values="-30 0; 30 0"/>
			<animate attributeName="opacity" begin=".5s; b.end+1.33s" dur="1.67s" keyTimes="0; .2; .8; 1" values="0; 1; 1; 0"/>
		</path>
	</g>
	<g transform="translate(-4 12) scale(0.13)">
		<path fill="#86c3db" d="m393.6 282.7-5.8-3.4a14.3 14.3 0 000-6.6l5.8-3.4a4.1 4.1 0 001.4-5.5 4 4 0 00-5.5-1.5l-5.8 3.3a14.2 14.2 0 00-2.6-2 14.6 14.6 0 00-3-1.3v-6.7a4 4 0 10-8.1 0v6.7a14.2 14.2 0 00-5.7 3.3l-5.8-3.3a4 4 0 00-5.5 1.5 4.1 4.1 0 001.5 5.5l5.8 3.4a14.3 14.3 0 000 6.6l-5.8 3.4a4.1 4.1 0 00-1.5 5.5 4 4 0 005.5 1.5l5.8-3.3a14.2 14.2 0 002.7 2 13.8 13.8 0 003 1.3v6.7a4 4 0 108 0v-6.7a14.1 14.1 0 005.7-3.3l5.8 3.3a4 4 0 005.5-1.5 4.1 4.1 0 00-1.4-5.5Zm-22.6-1.4a6.2 6.2 0 01-2.2-8.4 6 6 0 015.2-3 6 6 0 013 .8 6.2 6.2 0 012.3 8.4 6 6 0 01-8.3 2.2Z" opacity="0">
			<animateTransform id="c" additive="sum" attributeName="transform" begin="1s; c.end+1.33s" dur="1.67s" type="translate" values="-30 0; 30 0"/>
			<animate attributeName="opacity" begin="1s; c.end+1.33s" dur="1.67s" keyTimes="0; .2; .8; 1" values="0; 1; 1; 0"/>
		</path>
	</g>
	<g transform="translate(10 10) scale(0.13)">
		<path fill="#86c3db" d="m163.6 340.7-5.8-3.4a14.3 14.3 0 000-6.6l5.8-3.4a4.1 4.1 0 001.4-5.5 4 4 0 00-5.5-1.5l-5.8 3.3a14.2 14.2 0 00-2.6-2 14.6 14.6 0 00-3-1.3v-6.7a4 4 0 10-8.1 0v6.7a14.2 14.2 0 00-5.7 3.3l-5.8-3.3a4 4 0 00-5.5 1.5 4.1 4.1 0 001.5 5.5l5.8 3.4a14.3 14.3 0 000 6.6l-5.8 3.4a4.1 4.1 0 00-1.5 5.5 4 4 0 005.5 1.5l5.8-3.3a14.2 14.2 0 002.6 2 13.8 13.8 0 003 1.3v6.7a4 4 0 108.1 0v-6.7a14.1 14.1 0 005.7-3.3l5.8 3.3a4 4 0 005.5-1.5 4.1 4.1 0 00-1.4-5.5Zm-22.6-1.4a6.2 6.2 0 01-2.2-8.4 6 6 0 015.2-3 6 6 0 013 .8 6.2 6.2 0 012.3 8.4 6 6 0 01-8.3 2.2Z" opacity="0">
			<animateTransform id="d" additive="sum" attributeName="transform" begin="0s; d.end+1.33s" dur="1.67s" type="translate" values="-30 0; 30 0"/>
			<animate attributeName="opacity" begin="0s; d.end+1.33s" dur="1.67s" keyTimes="0; .2; .8; 1" values="0; 1; 1; 0"/>
		</path>
	</g>
</svg>
